HIERARCHY
ROOT Hips
{
	OFFSET 0.000000 0.000000 0.000000 
	CHANNELS 6 Xposition Yposition Zposition Zrotation Yrotation Xrotation
	JOINT LeftUpLeg
	{
		OFFSET 1.363060 -1.794630 0.839290 
		CHANNELS 3 Zrotation Yrotation Xrotation
		JOINT LeftLeg
		{
			OFFSET 2.448110 -6.726130 0.000000 
			CHANNELS 3 Zrotation Yrotation Xrotation
			JOINT LeftFoot
			{
				OFFSET 2.562200 -7.039590 0.000000 
				CHANNELS 3 Zrotation Yrotation Xrotation
				JOINT LeftToeBase
				{
					OFFSET 0.157640 -0.433110 2.322550 
					CHANNELS 3 Zrotation Yrotation Xrotation
					End Site
					{
						OFFSET 0.000000 0.000000 0.000000 
					}
				}
			}
		}
	}
	JOINT RightUpLeg
	{
		OFFSET -1.305520 -1.794630 0.839290 
		CHANNELS 3 Zrotation Yrotation Xrotation
		JOINT RightLeg
		{
			OFFSET -2.542530 -6.985550 0.000000 
			CHANNELS 3 Zrotation Yrotation Xrotation
			JOINT RightFoot
			{
				OFFSET -2.568260 -7.056230 0.000000 
				CHANNELS 3 Zrotation Yrotation Xrotation
				JOINT RightToeBase
				{
					OFFSET -0.164730 -0.452590 2.363150 
					CHANNELS 3 Zrotation Yrotation Xrotation
					End Site
					{
						OFFSET 0.000000 0.000000 0.000000 
					}
				}
			}
		}
	}
	JOINT Spine
	{
		OFFSET 0.028270 2.035590 -0.193380 
		CHANNELS 3 Zrotation Yrotation Xrotation
		JOINT Spine1
		{
			OFFSET 0.056720 2.048850 -0.042750 
			CHANNELS 3 Zrotation Yrotation Xrotation
			JOINT Neck1
			{
				OFFSET -0.054170 1.746240 0.172020 
				CHANNELS 3 Zrotation Yrotation Xrotation
				JOINT Head
				{
					OFFSET 0.104070 1.761360 -0.123970 
					CHANNELS 3 Zrotation Yrotation Xrotation
					End Site
					{
						OFFSET 0.000000 0.000000 0.000000 
					}
				}
			}
			JOINT LeftArm
			{
				OFFSET 3.362410 1.200890 -0.311210 
				CHANNELS 3 Zrotation Yrotation Xrotation
				JOINT LeftForeArm
				{
					OFFSET 4.983000 -0.000000 -0.000000 
					CHANNELS 3 Zrotation Yrotation Xrotation
					JOINT LeftHand
					{
						OFFSET 3.483560 -0.000000 -0.000000 
						CHANNELS 3 Zrotation Yrotation Xrotation
						JOINT LeftHandIndex1
						{
							OFFSET 0.715260 -0.000000 -0.000000 
							CHANNELS 3 Zrotation Yrotation Xrotation
							End Site
							{
								OFFSET 0.000000 0.000000 0.000000 
							}
						}
					}
				}
			}
			JOINT RightArm
			{
				OFFSET -3.136600 1.374050 -0.404650 
				CHANNELS 3 Zrotation Yrotation Xrotation
				JOINT RightForeArm
				{
					OFFSET -5.241900 -0.000000 -0.000000 
					CHANNELS 3 Zrotation Yrotation Xrotation
					JOINT RightHand
					{
						OFFSET -3.444170 -0.000000 -0.000000 
						CHANNELS 3 Zrotation Yrotation Xrotation
						JOINT RightHandIndex1
						{
							OFFSET -0.622530 -0.000000 -0.000000 
							CHANNELS 3 Zrotation Yrotation Xrotation
							End Site
							{
								OFFSET 0.000000 0.000000 0.000000 
							}
						}
					}
				}
			}
		}
	}
}
MOTION
Frames: 9
Frame Time: 0.041667
8.922841 17.993377 25.936058 -177.366717 7.313510 -177.475669 -19.291904 -26.500405 1.890740 -3.262563 6.263670 18.721869 -4.700316 17.082396 -13.479946 0.088500 -1.918200 -5.279700 30.139404 22.328602 6.534724 3.833938 -3.186797 12.491843 6.572368 -27.582262 -15.886021 -0.002000 -0.288900 0.793700 4.244512 2.670086 0.079247 -5.480530 1.069044 -14.570116 17.035347 -2.932840 3.986954 3.625000 -1.459900 2.023900 -92.292345 14.875078 31.387998 24.911055 -24.183087 -6.390413 1.521261 0.593738 8.949855 -7.125000 0.000000 0.000000 90.390798 -15.410973 41.393386 -24.798544 27.868334 -7.322627 0.725380 -0.538061 14.080983 7.125000 0.000000 0.000000 
8.924462 17.993725 25.937563 -177.401902 7.112293 -177.550812 -19.281799 -26.545490 1.885331 -3.256380 6.260182 18.719391 -4.683382 17.011315 -13.367654 0.085800 -1.889800 -5.201200 30.126875 22.239889 6.537843 3.836564 -3.176468 12.493139 6.571028 -27.596201 -16.028281 -0.003500 -0.382300 1.050400 4.064385 2.559830 0.765822 -5.486188 1.038458 -14.368839 17.193405 -2.847670 3.525959 3.687800 -1.452400 1.906600 -92.241883 14.623399 31.245409 24.948833 -24.221306 -6.390602 1.511978 0.594921 8.892288 -7.125000 0.000000 0.000000 90.305823 -15.101424 41.693958 -24.703417 27.749776 -7.268423 0.731230 -0.540029 14.115128 7.125000 0.000000 0.000000 
8.925966 17.994651 25.938026 -177.452606 6.926066 -177.556755 -19.321147 -26.566394 1.880914 -3.256128 6.251007 18.685836 -4.716166 17.076884 -13.195756 0.125900 -2.287700 -6.301300 30.075187 22.251899 6.539340 3.841428 -3.174517 12.499089 6.564472 -27.611366 -16.263768 -0.006400 -0.517600 1.422200 4.097618 2.517777 0.838466 -5.456403 1.028888 -14.360407 17.311263 -2.820168 3.410319 3.750600 -1.448400 1.873100 -92.311467 14.639028 31.116611 24.963025 -24.241350 -6.399847 1.511282 0.597399 8.896660 -7.125000 0.000000 0.000000 90.187774 -15.127946 41.990961 -24.621590 27.651968 -7.230467 0.733897 -0.544226 14.076437 7.125000 0.000000 0.000000 
8.928165 17.997197 25.937678 -177.444327 6.764099 -177.454987 -19.281637 -26.706789 1.837250 -3.261444 6.244781 18.650994 -4.761612 17.192906 -13.167848 0.154500 -2.533000 -6.981100 30.035559 22.245269 6.434551 3.847515 -3.175506 12.483800 6.554998 -27.606721 -16.390081 -0.010100 -0.648600 1.782500 4.202873 2.523968 0.696319 -5.443853 1.032458 -14.357647 17.362896 -2.813275 3.418980 3.784200 -1.444300 1.879900 -92.398130 14.678746 30.957708 24.982970 -24.271197 -6.414721 1.519969 0.589385 8.871862 -7.125000 0.000000 0.000000 90.140026 -15.214814 42.073781 -24.553715 27.561351 -7.187731 0.733308 -0.553165 14.273973 7.125000 0.000000 0.000000 
8.929902 17.999859 25.937678 -177.426809 6.637918 -177.357398 -19.165314 -26.771718 1.713052 -3.262895 6.238996 18.620193 -4.757520 17.155735 -13.099597 0.152700 -2.518200 -6.940000 30.009546 22.177495 6.287022 3.849416 -3.176126 12.469428 6.546470 -27.576943 -16.367278 -0.015200 -0.796900 2.190300 4.061895 2.534255 0.933764 -5.475139 1.038022 -14.199876 17.279812 -2.851707 3.402083 3.736000 -1.463000 1.897300 -92.323190 14.532456 30.973293 25.002880 -24.294740 -6.422835 1.523932 0.585890 8.661201 -7.125000 0.000000 0.000000 90.211966 -15.114599 41.956245 -24.410497 27.367415 -7.084140 0.734159 -0.569317 14.922848 7.125000 0.000000 0.000000 
8.930480 18.000554 25.938257 -177.433394 6.631535 -177.283439 -19.094796 -26.740420 1.604085 -3.262208 6.235901 18.602972 -4.713003 17.014422 -13.032249 0.124600 -2.275700 -6.268300 29.975471 22.144111 6.158913 3.846891 -3.181342 12.457882 6.580063 -27.640057 -16.164303 -0.011400 -0.689000 1.893500 3.812578 2.612178 1.109802 -5.532151 1.072810 -14.073708 17.271336 -2.880915 3.402386 3.713900 -1.476000 1.907100 -92.219168 14.448894 30.984048 24.996792 -24.292388 -6.425788 1.523276 0.596698 8.497629 -7.125000 0.000000 0.000000 90.328431 -15.048942 41.895210 -24.719478 27.738991 -7.262603 0.726554 -0.543963 13.902349 7.125000 0.000000 0.000000 
8.931638 18.000554 25.938141 -177.427064 6.599320 -177.253090 -19.076621 -26.798391 1.614429 -3.262711 6.234422 18.587062 -4.736464 17.067228 -12.963097 0.139700 -2.408500 -6.636100 29.999601 22.139483 6.128067 3.845870 -3.185227 12.452276 6.623045 -27.753054 -16.036251 -0.008000 -0.576700 1.584800 3.611244 2.691784 1.020398 -5.591749 1.099947 -14.111936 17.333703 -2.909928 3.517855 3.725600 -1.479200 1.943400 -92.127721 14.565683 31.022873 25.025355 -24.328793 -6.448157 1.517980 0.609709 8.391296 -7.125000 0.000000 0.000000 90.417982 -15.170822 41.861480 -24.891359 27.945490 -7.367695 0.716313 -0.536872 13.864330 7.125000 0.000000 0.000000 
8.933953 18.001017 25.937678 -177.447469 6.435267 -177.322348 -19.106760 -26.902176 1.699767 -3.261169 6.237912 18.585761 -4.797842 17.229898 -12.893480 0.206400 -2.925100 -8.070300 30.043184 22.060003 6.218930 3.848327 -3.172276 12.448414 6.615521 -27.749515 -16.129865 -0.016100 -0.820000 2.253600 3.384660 2.708715 1.051393 -5.627765 1.100759 -14.207682 17.309913 -2.991983 3.600882 3.702100 -1.511800 1.975300 -92.002612 14.641332 31.196914 25.035450 -24.339523 -6.454778 1.509501 0.620539 8.213230 -7.125000 0.000000 0.000000 90.494604 -15.212622 41.759598 -24.944296 28.022288 -7.412642 0.711562 -0.534818 14.287871 7.125000 0.000000 0.000000 
8.936731 18.001017 25.937215 -177.442852 6.240169 -177.403010 -19.104617 -26.957223 1.754671 -3.256343 6.241450 18.605459 -4.750961 17.100225 -12.906309 0.194300 -2.838500 -7.829600 30.094337 22.003437 6.323540 3.854679 -3.154960 12.439798 6.584803 -27.702754 -16.368390 -0.041300 -1.311800 3.607200 3.366087 2.714024 1.198116 -5.644383 1.102752 -14.256785 17.225061 -3.061299 3.498847 3.671100 -1.595900 1.946300 -91.987028 14.592139 31.254090 24.996173 -24.300444 -6.440247 1.506336 0.629180 8.119130 -7.125000 0.000000 0.000000 90.482957 -15.144761 41.745927 -24.956074 28.041958 -7.418516 0.716399 -0.532396 14.367960 7.125000 0.000000 0.000000 
